999
dxfrw 0.5.11
0
SECTION
2
HEADER
9
$ACADVER
1
AC1021
9
$HANDSEED
5
20000
9
$DWGCODEPAGE
3
ANSI_1252
9
$INSBASE
10
0
20
0
30
0
9
$EXTMIN
10
-90
20
-90
30
0
9
$EXTMAX
10
90
20
90
30
0
9
$LIMMIN
10
0
20
0
9
$LIMMAX
10
420
20
297
9
$ORTHOMODE
70
0
9
$LTSCALE
40
1
9
$TEXTSTYLE
7
STANDARD
9
$CLAYER
8
dim
9
$DIMASZ
40
2.5
9
$DIMLFAC
40
1
9
$DIMSCALE
40
1
9
$DIMEXO
40
0.625
9
$DIMEXE
40
1.25
9
$DIMTXT
40
2.5
9
$DIMTSZ
40
0
9
$DIMAUNIT
70
0
9
$DIMADEC
70
0
9
$DIMLUNIT
70
2
9
$DIMSTYLE
2
Standard
9
$DIMGAP
40
0.625
9
$DIMTIH
70
0
9
$LUNITS
70
2
9
$LUPREC
70
1
9
$AUNITS
70
0
9
$AUPREC
70
0
9
$SPLINESEGS
70
8
9
$GRIDMODE
70
1
9
$SNAPSTYLE
70
0
9
$GRIDUNIT
10
0
20
0
9
$PINSBASE
10
148.5
20
105
30
0
9
$PLIMMIN
10
0
20
0
9
$PLIMMAX
10
297
20
210
9
$INSUNITS
70
4
9
$PSVPSCALE
40
1.02778
0
ENDSEC
0
SECTION
2
CLASSES
0
ENDSEC
0
SECTION
2
TABLES
0
TABLE
2
VPORT
5
8
330
0
100
AcDbSymbolTable
70
1
0
VPORT
5
31
330
2
100
AcDbSymbolTableRecord
100
AcDbViewportTableRecord
2
*ACTIVE
70
0
10
0
20
0
11
1
21
1
12
84.75
22
50.75
13
0
23
0
14
10
24
10
15
10
25
10
16
0
26
0
36
1
17
0
27
0
37
0
40
211.5
41
1.78014184397
42
50
43
0
44
0
50
0
51
0
71
0
72
100
73
1
74
3
75
0
76
1
77
0
78
0
281
0
65
1
110
0
120
0
130
0
111
1
121
0
131
0
112
0
122
1
132
0
79
0
146
0
348
10020
60
7
61
5
292
1
282
1
141
0
142
0
63
250
421
3358443
0
ENDTAB
0
TABLE
2
LTYPE
5
5
330
0
100
AcDbSymbolTable
70
4
0
LTYPE
5
14
330
5
100
AcDbSymbolTableRecord
100
AcDbLinetypeTableRecord
2
ByBlock
70
0
3

72
65
73
0
40
0
0
LTYPE
5
15
330
5
100
AcDbSymbolTableRecord
100
AcDbLinetypeTableRecord
2
ByLayer
70
0
3

72
65
73
0
40
0
0
LTYPE
5
16
330
5
100
AcDbSymbolTableRecord
100
AcDbLinetypeTableRecord
2
Continuous
70
0
3
Solid line
72
65
73
0
40
0
0
LTYPE
5
32
330
5
100
AcDbSymbolTableRecord
100
AcDbLinetypeTableRecord
2
DOT
70
0
3
Dot . . . . . . . . . . . . . . . . . . . . . .
72
65
73
2
40
6.35
49
0
74
0
49
-6.35
74
0
0
LTYPE
5
33
330
5
100
AcDbSymbolTableRecord
100
AcDbLinetypeTableRecord
2
DOT2
70
0
3
Dot (.5x) .....................................
72
65
73
2
40
3.175
49
0
74
0
49
-3.175
74
0
0
LTYPE
5
34
330
5
100
AcDbSymbolTableRecord
100
AcDbLinetypeTableRecord
2
DOTX2
70
0
3
Dot (2x) .  .  .  .  .  .  .  .  .  .  .  .  .
72
65
73
2
40
12.7
49
0
74
0
49
-12.7
74
0
0
LTYPE
5
35
330
5
100
AcDbSymbolTableRecord
100
AcDbLinetypeTableRecord
2
DASHED
70
0
3
Dot . . . . . . . . . . . . . . . . . . . . . .
72
65
73
2
40
19.05
49
12.7
74
0
49
-6.35
74
0
0
LTYPE
5
36
330
5
100
AcDbSymbolTableRecord
100
AcDbLinetypeTableRecord
2
DASHED2
70
0
3
Dashed (.5x) _ _ _ _ _ _ _ _ _ _ _ _ _ _ _ _ _
72
65
73
2
40
9.525
49
6.35
74
0
49
-3.175
74
0
0
LTYPE
5
37
330
5
100
AcDbSymbolTableRecord
100
AcDbLinetypeTableRecord
2
DASHEDX2
70
0
3
Dashed (2x) ____  ____  ____  ____  ____  ___
72
65
73
2
40
38.1
49
25.4
74
0
49
-12.7
74
0
0
LTYPE
5
38
330
5
100
AcDbSymbolTableRecord
100
AcDbLinetypeTableRecord
2
DASHDOT
70
0
3
Dash dot __ . __ . __ . __ . __ . __ . __ . __
72
65
73
4
40
25.4
49
12.7
74
0
49
-6.35
74
0
49
0
74
0
49
-6.35
74
0
0
LTYPE
5
39
330
5
100
AcDbSymbolTableRecord
100
AcDbLinetypeTableRecord
2
DASHDOT2
70
0
3
Dash dot (.5x) _._._._._._._._._._._._._._._.
72
65
73
4
40
12.7
49
6.35
74
0
49
-3.175
74
0
49
0
74
0
49
-3.175
74
0
0
LTYPE
5
3A
330
5
100
AcDbSymbolTableRecord
100
AcDbLinetypeTableRecord
2
DASHDOTX2
70
0
3
Dash dot (2x) ____  .  ____  .  ____  .  ___
72
65
73
4
40
50.8
49
25.4
74
0
49
-12.7
74
0
49
0
74
0
49
-12.7
74
0
0
LTYPE
5
3B
330
5
100
AcDbSymbolTableRecord
100
AcDbLinetypeTableRecord
2
DIVIDE
70
0
3
Divide ____ . . ____ . . ____ . . ____ . . ____
72
65
73
6
40
31.75
49
12.7
74
0
49
-6.35
74
0
49
0
74
0
49
-6.35
74
0
49
0
74
0
49
-6.35
74
0
0
LTYPE
5
3C
330
5
100
AcDbSymbolTableRecord
100
AcDbLinetypeTableRecord
2
DIVIDE2
70
0
3
Divide (.5x) __..__..__..__..__..__..__..__.._
72
65
73
6
40
15.875
49
6.35
74
0
49
-3.175
74
0
49
0
74
0
49
-3.175
74
0
49
0
74
0
49
-3.175
74
0
0
LTYPE
5
3D
330
5
100
AcDbSymbolTableRecord
100
AcDbLinetypeTableRecord
2
DIVIDEX2
70
0
3
Divide (2x) ________  .  .  ________  .  .  _
72
65
73
6
40
63.5
49
25.4
74
0
49
-12.7
74
0
49
0
74
0
49
-12.7
74
0
49
0
74
0
49
-12.7
74
0
0
LTYPE
5
3E
330
5
100
AcDbSymbolTableRecord
100
AcDbLinetypeTableRecord
2
BORDER
70
0
3
Border __ __ . __ __ . __ __ . __ __ . __ __ .
72
65
73
6
40
44.45
49
12.7
74
0
49
-6.35
74
0
49
12.7
74
0
49
-6.35
74
0
49
0
74
0
49
-6.35
74
0
0
LTYPE
5
3F
330
5
100
AcDbSymbolTableRecord
100
AcDbLinetypeTableRecord
2
BORDER2
70
0
3
Border (.5x) __.__.__.__.__.__.__.__.__.__.__.
72
65
73
6
40
22.225
49
6.35
74
0
49
-3.175
74
0
49
6.35
74
0
49
-3.175
74
0
49
0
74
0
49
-3.175
74
0
0
LTYPE
5
40
330
5
100
AcDbSymbolTableRecord
100
AcDbLinetypeTableRecord
2
BORDERX2
70
0
3
Border (2x) ____  ____  .  ____  ____  .  ___
72
65
73
6
40
88.9
49
25.4
74
0
49
-12.7
74
0
49
25.4
74
0
49
-12.7
74
0
49
0
74
0
49
-12.7
74
0
0
LTYPE
5
41
330
5
100
AcDbSymbolTableRecord
100
AcDbLinetypeTableRecord
2
CENTER
70
0
3
Center ____ _ ____ _ ____ _ ____ _ ____ _ ____
72
65
73
4
40
50.8
49
31.75
74
0
49
-6.35
74
0
49
6.35
74
0
49
-6.35
74
0
0
LTYPE
5
42
330
5
100
AcDbSymbolTableRecord
100
AcDbLinetypeTableRecord
2
CENTER2
70
0
3
Center (.5x) ___ _ ___ _ ___ _ ___ _ ___ _ ___
72
65
73
4
40
28.575
49
19.05
74
0
49
-3.175
74
0
49
3.175
74
0
49
-3.175
74
0
0
LTYPE
5
43
330
5
100
AcDbSymbolTableRecord
100
AcDbLinetypeTableRecord
2
CENTERX2
70
0
3
Center (2x) ________  __  ________  __  _____
72
65
73
4
40
101.6
49
63.5
74
0
49
-12.7
74
0
49
12.7
74
0
49
-12.7
74
0
0
ENDTAB
0
TABLE
2
LAYER
5
2
330
0
100
AcDbSymbolTable
70
1
0
LAYER
5
10
330
2
100
AcDbSymbolTableRecord
100
AcDbLayerTableRecord
2
0
70
0
62
7
6
CONTINUOUS
370
0
390
F
0
LAYER
5
44
330
2
100
AcDbSymbolTableRecord
100
AcDbLayerTableRecord
2
dim
70
0
62
7
6
CONTINUOUS
370
0
390
F
0
LAYER
5
45
330
2
100
AcDbSymbolTableRecord
100
AcDbLayerTableRecord
2
dim2
70
0
62
7
6
DASHED2
370
0
390
F
0
ENDTAB
0
TABLE
2
STYLE
5
3
330
0
100
AcDbSymbolTable
70
3
0
STYLE
5
46
330
2
100
AcDbSymbolTableRecord
100
AcDbTextStyleTableRecord
2
cyrillic_ii
70
0
40
0
41
1
50
0
71
0
42
1
3
cyrillic_ii
4

0
STYLE
5
47
330
2
100
AcDbSymbolTableRecord
100
AcDbTextStyleTableRecord
2
Standard
70
0
40
0
41
1
50
0
71
0
42
1
3
txt
4

0
ENDTAB
0
TABLE
2
VIEW
5
6
330
0
100
AcDbSymbolTable
70
0
0
ENDTAB
0
TABLE
2
UCS
5
7
330
0
100
AcDbSymbolTable
70
0
0
ENDTAB
0
TABLE
2
APPID
5
9
330
0
100
AcDbSymbolTable
70
1
0
APPID
5
12
330
9
100
AcDbSymbolTableRecord
100
AcDbRegAppTableRecord
2
ACAD
70
0
0
ENDTAB
0
TABLE
2
DIMSTYLE
5
A
330
0
100
AcDbSymbolTable
70
1
100
AcDbDimStyleTable
71
1
0
DIMSTYLE
105
48
330
A
100
AcDbSymbolTableRecord
100
AcDbDimStyleTableRecord
2
Standard
70
0
40
1
41
2.5
42
0.625
43
0.38
44
1.25
45
0
46
0
47
0
48
0
140
2.5
141
0.09
142
0
143
25.4
144
1
145
0
146
1
147
0.625
148
0
71
0
72
0
73
0
74
1
75
0
76
0
77
0
78
0
79
0
170
0
171
2
172
0
173
0
174
0
175
0
176
0
177
0
178
0
179
0
271
4
272
4
273
2
274
2
275
0
276
0
277
2
278
46
279
0
280
0
281
0
282
0
283
1
284
0
285
0
286
0
288
0
289
3
340
Standard
341

371
-2
372
-2
0
ENDTAB
0
TABLE
2
BLOCK_RECORD
5
1
330
0
100
AcDbSymbolTable
70
2
0
BLOCK_RECORD
5
1F
330
1
100
AcDbSymbolTableRecord
100
AcDbBlockTableRecord
2
*Model_Space
70
0
280
1
281
0
0
BLOCK_RECORD
5
1E
330
1
100
AcDbSymbolTableRecord
100
AcDbBlockTableRecord
2
*Paper_Space
70
0
280
1
281
0
0
BLOCK_RECORD
5
49
330
1
100
AcDbSymbolTableRecord
100
AcDbBlockTableRecord
2
*D1
70
0
280
1
281
0
0
BLOCK_RECORD
5
4C
330
1
100
AcDbSymbolTableRecord
100
AcDbBlockTableRecord
2
*D6
70
0
280
1
281
0
0
BLOCK_RECORD
5
4F
330
1
100
AcDbSymbolTableRecord
100
AcDbBlockTableRecord
2
*D2
70
0
280
1
281
0
0
BLOCK_RECORD
5
52
330
1
100
AcDbSymbolTableRecord
100
AcDbBlockTableRecord
2
*D7
70
0
280
1
281
0
0
BLOCK_RECORD
5
55
330
1
100
AcDbSymbolTableRecord
100
AcDbBlockTableRecord
2
*D5
70
0
280
1
281
0
0
BLOCK_RECORD
5
58
330
1
100
AcDbSymbolTableRecord
100
AcDbBlockTableRecord
2
*D12
70
0
280
1
281
0
0
BLOCK_RECORD
5
5B
330
1
100
AcDbSymbolTableRecord
100
AcDbBlockTableRecord
2
*D9
70
0
280
1
281
0
0
BLOCK_RECORD
5
5E
330
1
100
AcDbSymbolTableRecord
100
AcDbBlockTableRecord
2
*D4
70
0
280
1
281
0
0
BLOCK_RECORD
5
61
330
1
100
AcDbSymbolTableRecord
100
AcDbBlockTableRecord
2
*D11
70
0
280
1
281
0
0
BLOCK_RECORD
5
64
330
1
100
AcDbSymbolTableRecord
100
AcDbBlockTableRecord
2
*D10
70
0
280
1
281
0
0
BLOCK_RECORD
5
67
330
1
100
AcDbSymbolTableRecord
100
AcDbBlockTableRecord
2
*D3
70
0
280
1
281
0
0
BLOCK_RECORD
5
6A
330
1
100
AcDbSymbolTableRecord
100
AcDbBlockTableRecord
2
*D8
70
0
280
1
281
0
0
ENDTAB
0
ENDSEC
0
SECTION
2
BLOCKS
0
BLOCK
5
20
330
1F
100
AcDbEntity
8
0
100
AcDbBlockBegin
2
*Model_Space
70
0
10
0
20
0
30
0
3
*Model_Space
1

0
ENDBLK
5
21
330
1F
100
AcDbEntity
8
0
100
AcDbBlockEnd
0
BLOCK
5
1C
330
1B
100
AcDbEntity
8
0
100
AcDbBlockBegin
2
*Paper_Space
70
0
10
0
20
0
30
0
3
*Paper_Space
1

0
ENDBLK
5
1D
330
1F
100
AcDbEntity
8
0
100
AcDbBlockEnd
0
BLOCK
5
4A
330
49
100
AcDbEntity
8
0
100
AcDbBlockBegin
2
*D1
70
1
10
0
20
0
3
*D1
1

0
LINE
5
6D
100
AcDbEntity
8
dim
6
CONTINUOUS
62
7
370
0
100
AcDbLine
10
-55.8614357137
20
-55.8614357137
11
55.8614357137
21
55.8614357137
0
SOLID
5
6E
100
AcDbEntity
8
dim
6
CONTINUOUS
62
7
370
0
100
AcDbTrace
10
-55.8614357137
20
-55.8614357137
30
0
11
-54.3880264652
21
-53.7993110564
31
0
12
-53.7993110564
22
-54.3880264652
32
0
13
-53.7993110564
23
-54.3880264652
33
0
0
SOLID
5
6F
100
AcDbEntity
8
dim
6
CONTINUOUS
62
7
370
0
100
AcDbTrace
10
55.8614357137
20
55.8614357137
30
0
11
54.3880264652
21
53.7993110564
31
0
12
53.7993110564
22
54.3880264652
32
0
13
53.7993110564
23
54.3880264652
33
0
0
MTEXT
5
70
100
AcDbEntity
8
dim
6
CONTINUOUS
62
7
370
0
100
AcDbMText
10
60
20
60
30
0
40
2.5
41
4.44444444444
71
5
72
1
1
158
7
standard
210
0
220
0
230
1
50
45
73
2
44
1
0
ENDBLK
5
4B
330
49
100
AcDbEntity
8
0
100
AcDbBlockEnd
0
BLOCK
5
4D
330
4C
100
AcDbEntity
8
0
100
AcDbBlockBegin
2
*D6
70
1
10
0
20
0
3
*D6
1

0
LINE
5
71
100
AcDbEntity
8
dim
6
CONTINUOUS
62
7
370
0
100
AcDbLine
10
52.05
20
-7
11
-8.14063127945e-15
21
-7
0
SOLID
5
72
100
AcDbEntity
8
dim
6
CONTINUOUS
62
7
370
0
100
AcDbTrace
10
52.05
20
-7
30
0
11
49.55
21
-7.41628465777
31
0
12
49.55
22
-6.58371534223
32
0
13
49.55
23
-6.58371534223
33
0
0
SOLID
5
73
100
AcDbEntity
8
dim
6
CONTINUOUS
62
7
370
0
100
AcDbTrace
10
-8.14063127945e-15
20
-7
30
0
11
2.5
21
-6.58371534223
31
0
12
2.5
22
-7.41628465777
32
0
13
2.5
23
-7.41628465777
33
0
0
MTEXT
5
74
100
AcDbEntity
8
dim
6
CONTINUOUS
62
7
370
0
100
AcDbMText
10
26.025
20
-5.125
30
0
40
2.5
41
3.05555555556
71
5
72
1
1
52
7
standard
210
0
220
0
230
1
50
360
73
2
44
1
0
LINE
5
75
100
AcDbEntity
8
dim
6
CONTINUOUS
62
7
370
0
100
AcDbLine
10
52.05
20
-0.625
11
52.05
21
-8.25
0
LINE
5
76
100
AcDbEntity
8
dim
6
CONTINUOUS
62
7
370
0
100
AcDbLine
10
-8.81055342919e-15
20
-0.625
11
-9.48047557892e-15
21
-8.25
0
ENDBLK
5
4E
330
4C
100
AcDbEntity
8
0
100
AcDbBlockEnd
0
BLOCK
5
50
330
4F
100
AcDbEntity
8
0
100
AcDbBlockBegin
2
*D2
70
1
10
0
20
0
3
*D2
1

0
LINE
5
77
100
AcDbEntity
8
dim
6
CONTINUOUS
62
7
370
0
100
AcDbLine
10
15.75
20
-48.708957
11
34.25
21
-48.708957
0
SOLID
5
78
100
AcDbEntity
8
dim
6
CONTINUOUS
62
7
370
0
100
AcDbTrace
10
15.75
20
-48.708957
30
0
11
18.25
21
-48.2926723422
31
0
12
18.25
22
-49.1252416578
32
0
13
18.25
23
-49.1252416578
33
0
0
SOLID
5
79
100
AcDbEntity
8
dim
6
CONTINUOUS
62
7
370
0
100
AcDbTrace
10
34.25
20
-48.708957
30
0
11
31.75
21
-49.1252416578
31
0
12
31.75
22
-48.2926723422
32
0
13
31.75
23
-48.2926723422
33
0
0
MTEXT
5
7A
100
AcDbEntity
8
dim
6
CONTINUOUS
62
7
370
0
100
AcDbMText
10
25
20
-46.833957
30
0
40
2.5
41
5.27777777778
71
5
72
1
1
18.5
7
standard
210
0
220
0
230
1
50
0
73
2
44
1
0
ENDBLK
5
51
330
4F
100
AcDbEntity
8
0
100
AcDbBlockEnd
0
BLOCK
5
53
330
52
100
AcDbEntity
8
0
100
AcDbBlockBegin
2
*D7
70
1
10
0
20
0
3
*D7
1

0
LINE
5
7B
100
AcDbEntity
8
dim
6
CONTINUOUS
62
7
370
0
100
AcDbLine
10
-52.05
20
-7
11
0
21
-7
0
SOLID
5
7C
100
AcDbEntity
8
dim
6
CONTINUOUS
62
7
370
0
100
AcDbTrace
10
-52.05
20
-7
30
0
11
-49.55
21
-6.58371534223
31
0
12
-49.55
22
-7.41628465777
32
0
13
-49.55
23
-7.41628465777
33
0
0
SOLID
5
7D
100
AcDbEntity
8
dim
6
CONTINUOUS
62
7
370
0
100
AcDbTrace
10
0
20
-7
30
0
11
-2.5
21
-7.41628465777
31
0
12
-2.5
22
-6.58371534223
32
0
13
-2.5
23
-6.58371534223
33
0
0
MTEXT
5
7E
100
AcDbEntity
8
dim
6
CONTINUOUS
62
7
370
0
100
AcDbMText
10
-26.025
20
-5.125
30
0
40
2.5
41
3.05555555556
71
5
72
1
1
52
7
standard
210
0
220
0
230
1
50
0
73
2
44
1
0
LINE
5
7F
100
AcDbEntity
8
dim
6
CONTINUOUS
62
7
370
0
100
AcDbLine
10
-52.05
20
-0.625
11
-52.05
21
-8.25
0
LINE
5
80
100
AcDbEntity
8
dim
6
CONTINUOUS
62
7
370
0
100
AcDbLine
10
-1.1481063742e-16
20
-0.625
11
-2.2962127484e-16
21
-8.25
0
ENDBLK
5
54
330
52
100
AcDbEntity
8
0
100
AcDbBlockEnd
0
BLOCK
5
56
330
55
100
AcDbEntity
8
0
100
AcDbBlockBegin
2
*D5
70
1
10
0
20
0
3
*D5
1

0
LINE
5
81
100
AcDbEntity
8
dim
6
CONTINUOUS
62
7
370
0
100
AcDbLine
10
-25
20
-62
11
0
21
-62
0
SOLID
5
82
100
AcDbEntity
8
dim
6
CONTINUOUS
62
7
370
0
100
AcDbTrace
10
-25
20
-62
30
0
11
-22.5
21
-61.5837153422
31
0
12
-22.5
22
-62.4162846578
32
0
13
-22.5
23
-62.4162846578
33
0
0
SOLID
5
83
100
AcDbEntity
8
dim
6
CONTINUOUS
62
7
370
0
100
AcDbTrace
10
0
20
-62
30
0
11
-2.5
21
-62.4162846578
31
0
12
-2.5
22
-61.5837153422
32
0
13
-2.5
23
-61.5837153422
33
0
0
MTEXT
5
84
100
AcDbEntity
8
dim
6
CONTINUOUS
62
7
370
0
100
AcDbMText
10
-12.5
20
-60.125
30
0
40
2.5
41
3.05555555556
71
5
72
1
1
25
7
standard
210
0
220
0
230
1
50
0
73
2
44
1
0
LINE
5
85
100
AcDbEntity
8
dim
6
CONTINUOUS
62
7
370
0
100
AcDbLine
10
-25
20
-49.333957
11
-25
21
-63.25
0
LINE
5
86
100
AcDbEntity
8
dim
6
CONTINUOUS
62
7
370
0
100
AcDbLine
10
-1.1481063742e-16
20
-49.393
11
-2.2962127484e-16
21
-63.25
0
ENDBLK
5
57
330
55
100
AcDbEntity
8
0
100
AcDbBlockEnd
0
BLOCK
5
59
330
58
100
AcDbEntity
8
0
100
AcDbBlockBegin
2
*D12
70
1
10
0
20
0
3
*D12
1

0
LINE
5
87
100
AcDbEntity
8
dim
6
CONTINUOUS
62
7
370
0
100
AcDbLine
10
10
20
-48.708957
11
10
21
7.71649411035e-16
0
SOLID
5
88
100
AcDbEntity
8
dim
6
CONTINUOUS
62
7
370
0
100
AcDbTrace
10
10
20
-48.708957
30
0
11
9.58371534223
21
-46.208957
31
0
12
10.4162846578
22
-46.208957
32
0
13
10.4162846578
23
-46.208957
33
0
0
SOLID
5
89
100
AcDbEntity
8
dim
6
CONTINUOUS
62
7
370
0
100
AcDbTrace
10
10
20
7.71649411035e-16
30
0
11
10.4162846578
21
-2.5
31
0
12
9.58371534223
22
-2.5
32
0
13
9.58371534223
23
-2.5
33
0
0
MTEXT
5
8A
100
AcDbEntity
8
dim
6
CONTINUOUS
62
7
370
0
100
AcDbMText
10
8.125
20
-24.3544785
30
0
40
2.5
41
6.11111111111
71
5
72
1
1
48.7
7
standard
210
0
220
0
230
1
50
90
73
2
44
1
0
LINE
5
8B
100
AcDbEntity
8
dim
6
CONTINUOUS
62
7
370
0
100
AcDbLine
10
24.375
20
-48.708957
11
8.75
21
-48.708957
0
LINE
5
8C
100
AcDbEntity
8
dim
6
CONTINUOUS
62
7
370
0
100
AcDbLine
10
23.855
20
7.65404249467e-17
11
8.75
21
9.24730260929e-16
0
ENDBLK
5
5A
330
58
100
AcDbEntity
8
0
100
AcDbBlockEnd
0
BLOCK
5
5C
330
5B
100
AcDbEntity
8
0
100
AcDbBlockBegin
2
*D9
70
1
10
0
20
0
3
*D9
1

0
LINE
5
8D
100
AcDbEntity
8
dim
6
CONTINUOUS
62
7
370
0
100
AcDbLine
10
-13.2582521472
20
31.9917478528
11
13.2582521472
21
58.5082521472
0
SOLID
5
8E
100
AcDbEntity
8
dim
6
CONTINUOUS
62
7
370
0
100
AcDbTrace
10
-13.2582521472
20
31.9917478528
30
0
11
-11.7848428987
21
34.0538725101
31
0
12
-11.1961274899
22
33.4651571013
32
0
13
-11.1961274899
23
33.4651571013
33
0
0
SOLID
5
8F
100
AcDbEntity
8
dim
6
CONTINUOUS
62
7
370
0
100
AcDbTrace
10
13.2582521472
20
58.5082521472
30
0
11
11.7848428987
21
56.4461274899
31
0
12
11.1961274899
22
57.0348428987
32
0
13
11.1961274899
23
57.0348428987
33
0
0
MTEXT
5
90
100
AcDbEntity
8
dim
6
CONTINUOUS
62
7
370
0
100
AcDbMText
10
-7
20
41
30
0
40
2.5
41
5.83333333333
71
5
72
1
1
37.5
7
standard
210
0
220
0
230
1
50
45
73
2
44
1
0
ENDBLK
5
5D
330
5B
100
AcDbEntity
8
0
100
AcDbBlockEnd
0
BLOCK
5
5F
330
5E
100
AcDbEntity
8
0
100
AcDbBlockBegin
2
*D4
70
1
10
0
20
0
3
*D4
1

0
LINE
5
91
100
AcDbEntity
8
dim
6
CONTINUOUS
62
7
370
0
100
AcDbLine
10
25
20
-62
11
0
21
-62
0
SOLID
5
92
100
AcDbEntity
8
dim
6
CONTINUOUS
62
7
370
0
100
AcDbTrace
10
25
20
-62
30
0
11
22.5
21
-62.4162846578
31
0
12
22.5
22
-61.5837153422
32
0
13
22.5
23
-61.5837153422
33
0
0
SOLID
5
93
100
AcDbEntity
8
dim
6
CONTINUOUS
62
7
370
0
100
AcDbTrace
10
0
20
-62
30
0
11
2.5
21
-61.5837153422
31
0
12
2.5
22
-62.4162846578
32
0
13
2.5
23
-62.4162846578
33
0
0
MTEXT
5
94
100
AcDbEntity
8
dim
6
CONTINUOUS
62
7
370
0
100
AcDbMText
10
12.5
20
-60.125
30
0
40
2.5
41
3.05555555556
71
5
72
1
1
25
7
standard
210
0
220
0
230
1
50
360
73
2
44
1
0
LINE
5
95
100
AcDbEntity
8
dim
6
CONTINUOUS
62
7
370
0
100
AcDbLine
10
25
20
-49.333957
11
25
21
-63.25
0
LINE
5
96
100
AcDbEntity
8
dim
6
CONTINUOUS
62
7
370
0
100
AcDbLine
10
-1.1481063742e-16
20
-49.009
11
-2.2962127484e-16
21
-63.25
0
ENDBLK
5
60
330
5E
100
AcDbEntity
8
0
100
AcDbBlockEnd
0
BLOCK
5
62
330
61
100
AcDbEntity
8
0
100
AcDbBlockBegin
2
*D11
70
1
10
0
20
0
3
*D11
1

0
LINE
5
97
100
AcDbEntity
8
dim
6
CONTINUOUS
62
7
370
0
100
AcDbLine
10
40.1
20
1.46345292498e-15
11
64
21
0
0
SOLID
5
98
100
AcDbEntity
8
dim
6
CONTINUOUS
62
7
370
0
100
AcDbTrace
10
40.1
20
1.46345292498e-15
30
0
11
42.6
21
0.416284657773
31
0
12
42.6
22
-0.416284657773
32
0
13
42.6
23
-0.416284657773
33
0
0
SOLID
5
99
100
AcDbEntity
8
dim
6
CONTINUOUS
62
7
370
0
100
AcDbTrace
10
64
20
0
30
0
11
61.5
21
-0.416284657773
31
0
12
61.5
22
0.416284657773
32
0
13
61.5
23
0.416284657773
33
0
0
MTEXT
5
9A
100
AcDbEntity
8
dim
6
CONTINUOUS
62
7
370
0
100
AcDbMText
10
52
20
2
30
0
40
2.5
41
5.83333333333
71
5
72
1
1
23.9
7
standard
210
0
220
0
230
1
50
0
73
2
44
1
0
ENDBLK
5
63
330
61
100
AcDbEntity
8
0
100
AcDbBlockEnd
0
BLOCK
5
65
330
64
100
AcDbEntity
8
0
100
AcDbBlockBegin
2
*D10
70
1
10
0
20
0
3
*D10
1

0
LINE
5
9B
100
AcDbEntity
8
dim
6
CONTINUOUS
62
7
370
0
100
AcDbLine
10
-64
20
1.46345292498e-15
11
-40.1
21
0
0
SOLID
5
9C
100
AcDbEntity
8
dim
6
CONTINUOUS
62
7
370
0
100
AcDbTrace
10
-64
20
1.46345292498e-15
30
0
11
-61.5
21
0.416284657773
31
0
12
-61.5
22
-0.416284657773
32
0
13
-61.5
23
-0.416284657773
33
0
0
SOLID
5
9D
100
AcDbEntity
8
dim
6
CONTINUOUS
62
7
370
0
100
AcDbTrace
10
-40.1
20
0
30
0
11
-42.6
21
-0.416284657773
31
0
12
-42.6
22
0.416284657773
32
0
13
-42.6
23
0.416284657773
33
0
0
MTEXT
5
9E
100
AcDbEntity
8
dim
6
CONTINUOUS
62
7
370
0
100
AcDbMText
10
-52
20
2
30
0
40
2.5
41
5.83333333333
71
5
72
1
1
23.9
7
standard
210
0
220
0
230
1
50
0
73
2
44
1
0
ENDBLK
5
66
330
64
100
AcDbEntity
8
0
100
AcDbBlockEnd
0
BLOCK
5
68
330
67
100
AcDbEntity
8
0
100
AcDbBlockBegin
2
*D3
70
1
10
0
20
0
3
*D3
1

0
LINE
5
9F
100
AcDbEntity
8
dim
6
CONTINUOUS
62
7
370
0
100
AcDbLine
10
-34.25
20
-48.708957
11
-15.75
21
-48.708957
0
SOLID
5
A0
100
AcDbEntity
8
dim
6
CONTINUOUS
62
7
370
0
100
AcDbTrace
10
-34.25
20
-48.708957
30
0
11
-31.75
21
-48.2926723422
31
0
12
-31.75
22
-49.1252416578
32
0
13
-31.75
23
-49.1252416578
33
0
0
SOLID
5
A1
100
AcDbEntity
8
dim
6
CONTINUOUS
62
7
370
0
100
AcDbTrace
10
-15.75
20
-48.708957
30
0
11
-18.25
21
-49.1252416578
31
0
12
-18.25
22
-48.2926723422
32
0
13
-18.25
23
-48.2926723422
33
0
0
MTEXT
5
A2
100
AcDbEntity
8
dim
6
CONTINUOUS
62
7
370
0
100
AcDbMText
10
-25
20
-46.833957
30
0
40
2.5
41
5.27777777778
71
5
72
1
1
18.5
7
standard
210
0
220
0
230
1
50
0
73
2
44
1
0
ENDBLK
5
69
330
67
100
AcDbEntity
8
0
100
AcDbBlockEnd
0
BLOCK
5
6B
330
6A
100
AcDbEntity
8
0
100
AcDbBlockBegin
2
*D8
70
1
10
0
20
0
3
*D8
1

0
LINE
5
A3
100
AcDbEntity
8
dim
6
CONTINUOUS
62
7
370
0
100
AcDbLine
10
10
20
0
11
10
21
45.25
0
SOLID
5
A4
100
AcDbEntity
8
dim
6
CONTINUOUS
62
7
370
0
100
AcDbTrace
10
10
20
0
30
0
11
9.58371534223
21
2.5
31
0
12
10.4162846578
22
2.5
32
0
13
10.4162846578
23
2.5
33
0
0
SOLID
5
A5
100
AcDbEntity
8
dim
6
CONTINUOUS
62
7
370
0
100
AcDbTrace
10
10
20
45.25
30
0
11
10.4162846578
21
42.75
31
0
12
9.58371534223
22
42.75
32
0
13
9.58371534223
23
42.75
33
0
0
MTEXT
5
A6
100
AcDbEntity
8
dim
6
CONTINUOUS
62
7
370
0
100
AcDbMText
10
8
20
19
30
0
40
2.5
41
6.11111111111
71
5
72
1
1
45.2
7
standard
210
0
220
0
230
1
50
90
73
2
44
1
0
LINE
5
A7
100
AcDbEntity
8
dim
6
CONTINUOUS
62
7
370
0
100
AcDbLine
10
0.625
20
0
11
11.25
21
0
0
LINE
5
A8
100
AcDbEntity
8
dim
6
CONTINUOUS
62
7
370
0
100
AcDbLine
10
0.625
20
45.25
11
11.25
21
45.25
0
ENDBLK
5
6C
330
6A
100
AcDbEntity
8
0
100
AcDbBlockEnd
0
ENDSEC
0
SECTION
2
ENTITIES
0
ARC
5
A9
100
AcDbEntity
8
0
6
ByLayer
62
256
370
-1
100
AcDbCircle
10
-0
20
0
40
79
100
AcDbArc
50
0
51
90
0
ARC
5
AA
100
AcDbEntity
8
0
6
ByLayer
62
256
370
-1
100
AcDbCircle
10
-0
20
0
40
79
100
AcDbArc
50
90
51
180
0
ARC
5
AB
100
AcDbEntity
8
0
6
ByLayer
62
256
370
-1
100
AcDbCircle
10
0
20
0
40
79
100
AcDbArc
50
180
51
-90
0
ARC
5
AC
100
AcDbEntity
8
0
6
ByLayer
62
256
370
-1
100
AcDbCircle
10
-0
20
0
40
79
100
AcDbArc
50
-90
51
-0
0
ARC
5
AD
100
AcDbEntity
8
0
6
ByLayer
62
256
370
-1
100
AcDbCircle
10
-25
20
-48.708957
40
9.25
100
AcDbArc
50
-90
51
0
0
ARC
5
AE
100
AcDbEntity
8
0
6
ByLayer
62
256
370
-1
100
AcDbCircle
10
-25
20
-48.708957
40
9.25
100
AcDbArc
50
180
51
-90
0
ARC
5
AF
100
AcDbEntity
8
0
6
ByLayer
62
256
370
-1
100
AcDbCircle
10
-25
20
-48.708957
40
9.25
100
AcDbArc
50
90
51
180
0
ARC
5
B0
100
AcDbEntity
8
0
6
ByLayer
62
256
370
-1
100
AcDbCircle
10
-25
20
-48.708957
40
9.25
100
AcDbArc
50
0
51
90
0
ARC
5
B1
100
AcDbEntity
8
0
6
ByLayer
62
256
370
-1
100
AcDbCircle
10
52.05
20
-0
40
11.95
100
AcDbArc
50
-90
51
0
0
ARC
5
B2
100
AcDbEntity
8
0
6
ByLayer
62
256
370
-1
100
AcDbCircle
10
52.05
20
0
40
11.95
100
AcDbArc
50
-180
51
-90
0
ARC
5
B3
100
AcDbEntity
8
0
6
ByLayer
62
256
370
-1
100
AcDbCircle
10
52.05
20
0
40
11.95
100
AcDbArc
50
90
51
180
0
ARC
5
B4
100
AcDbEntity
8
0
6
ByLayer
62
256
370
-1
100
AcDbCircle
10
52.05
20
0
40
11.95
100
AcDbArc
50
-0
51
90
0
ARC
5
B5
100
AcDbEntity
8
0
6
ByLayer
62
256
370
-1
100
AcDbCircle
10
-52.05
20
0
40
11.95
100
AcDbArc
50
-90
51
0
0
ARC
5
B6
100
AcDbEntity
8
0
6
ByLayer
62
256
370
-1
100
AcDbCircle
10
-52.05
20
0
40
11.95
100
AcDbArc
50
-180
51
-90
0
ARC
5
B7
100
AcDbEntity
8
0
6
ByLayer
62
256
370
-1
100
AcDbCircle
10
-52.05
20
0
40
11.95
100
AcDbArc
50
90
51
180
0
ARC
5
B8
100
AcDbEntity
8
0
6
ByLayer
62
256
370
-1
100
AcDbCircle
10
-52.05
20
0
40
11.95
100
AcDbArc
50
-0
51
90
0
ARC
5
B9
100
AcDbEntity
8
0
6
ByLayer
62
256
370
-1
100
AcDbCircle
10
-0
20
45.25
40
18.75
100
AcDbArc
50
-90
51
0
0
ARC
5
BA
100
AcDbEntity
8
0
6
ByLayer
62
256
370
-1
100
AcDbCircle
10
-0
20
45.25
40
18.75
100
AcDbArc
50
180
51
-90
0
ARC
5
BB
100
AcDbEntity
8
0
6
ByLayer
62
256
370
-1
100
AcDbCircle
10
-0
20
45.25
40
18.75
100
AcDbArc
50
90
51
180
0
ARC
5
BC
100
AcDbEntity
8
0
6
ByLayer
62
256
370
-1
100
AcDbCircle
10
-0
20
45.25
40
18.75
100
AcDbArc
50
0
51
90
0
ARC
5
BD
100
AcDbEntity
8
0
6
ByLayer
62
256
370
-1
100
AcDbCircle
10
25
20
-48.708957
40
9.25
100
AcDbArc
50
-90
51
0
0
ARC
5
BE
100
AcDbEntity
8
0
6
ByLayer
62
256
370
-1
100
AcDbCircle
10
25
20
-48.708957
40
9.25
100
AcDbArc
50
180
51
-90
0
ARC
5
BF
100
AcDbEntity
8
0
6
ByLayer
62
256
370
-1
100
AcDbCircle
10
25
20
-48.708957
40
9.25
100
AcDbArc
50
90
51
180
0
ARC
5
C0
100
AcDbEntity
8
0
6
ByLayer
62
256
370
-1
100
AcDbCircle
10
25
20
-48.708957
40
9.25
100
AcDbArc
50
0
51
90
0
DIMENSION
5
C1
100
AcDbEntity
8
dim
6
ByLayer
62
256
370
-1
100
AcDbDimension
2
*D1
10
-55.8614357137
20
-55.8614357137
30
0
11
60
21
60
31
0
70
35
71
5
3
Standard
53
0
210
0
220
0
230
1
100
AcDbDiametricDimension
15
55.8614357137
25
55.8614357137
35
0
40
0
0
DIMENSION
5
C2
100
AcDbEntity
8
dim
6
ByLayer
62
256
370
-1
100
AcDbDimension
2
*D2
10
15.75
20
-48.708957
30
0
11
25
21
-46.833957
31
0
70
35
71
5
3
Standard
53
0
210
0
220
0
230
1
100
AcDbDiametricDimension
15
34.25
25
-48.708957
35
0
40
0
0
DIMENSION
5
C3
100
AcDbEntity
8
dim
6
ByLayer
62
256
370
-1
100
AcDbDimension
2
*D3
10
-34.25
20
-48.708957
30
0
11
-25
21
-46.833957
31
0
70
35
71
5
3
Standard
53
0
210
0
220
0
230
1
100
AcDbDiametricDimension
15
-15.75
25
-48.708957
35
0
40
0
0
LINE
5
C4
100
AcDbEntity
8
dim2
6
ByLayer
62
256
370
-1
100
AcDbLine
10
0
20
90
11
0
21
-90
0
LINE
5
C5
100
AcDbEntity
8
dim2
6
ByLayer
62
256
370
-1
100
AcDbLine
10
-90
20
0
11
90
21
0
0
DIMENSION
5
C6
100
AcDbEntity
8
dim
6
ByLayer
62
256
370
-1
100
AcDbDimension
2
*D4
10
-8.3373954086e-16
20
-62
30
0
11
12.5
21
-60.125
31
0
70
32
71
5
3
Standard
53
0
210
0
220
0
230
1
100
AcDbAlignedDimension
13
25
23
-48.708957
33
0
14
0
24
-48.384
34
0
100
AcDbRotatedDimension
0
DIMENSION
5
C7
100
AcDbEntity
8
dim
6
ByLayer
62
256
370
-1
100
AcDbDimension
2
*D5
10
0
20
-62
30
0
11
-12.5
21
-60.125
31
0
70
32
71
5
3
Standard
53
0
210
0
220
0
230
1
100
AcDbAlignedDimension
13
-25
23
-48.708957
33
0
14
0
24
-48.768
34
0
100
AcDbRotatedDimension
0
DIMENSION
5
C8
100
AcDbEntity
8
dim
6
ByLayer
62
256
370
-1
100
AcDbDimension
2
*D6
10
-8.56925765916e-15
20
-7
30
0
11
26.025
21
-5.125
31
0
70
32
71
5
3
Standard
53
0
210
0
220
0
230
1
100
AcDbAlignedDimension
13
52.05
23
-0
33
0
14
-8.14063127945e-15
24
0
34
0
100
AcDbRotatedDimension
0
DIMENSION
5
C9
100
AcDbEntity
8
dim
6
ByLayer
62
256
370
-1
100
AcDbDimension
2
*D7
10
0
20
-7
30
0
11
-26.025
21
-5.125
31
0
70
32
71
5
3
Standard
53
0
210
0
220
0
230
1
100
AcDbAlignedDimension
13
-52.05
23
0
33
0
14
-0
24
0
34
0
100
AcDbRotatedDimension
0
DIMENSION
5
CA
100
AcDbEntity
8
dim
6
ByLayer
62
256
370
-1
100
AcDbDimension
2
*D8
10
10
20
45.25
30
0
11
8
21
19
31
0
70
32
71
5
3
Standard
53
0
210
0
220
0
230
1
100
AcDbAlignedDimension
13
-8.14063127945e-15
23
0
33
0
14
-0
24
45.25
34
0
50
90
100
AcDbRotatedDimension
0
DIMENSION
5
CB
100
AcDbEntity
8
dim
6
ByLayer
62
256
370
-1
100
AcDbDimension
2
*D9
10
-13.2582521472
20
31.9917478528
30
0
11
-7
21
41
31
0
70
35
71
5
3
Standard
53
0
210
0
220
0
230
1
100
AcDbDiametricDimension
15
13.2582521472
25
58.5082521472
35
0
40
0
0
DIMENSION
5
CC
100
AcDbEntity
8
dim
6
ByLayer
62
256
370
-1
100
AcDbDimension
2
*D10
10
-64
20
1.46345292498e-15
30
0
11
-52
21
2
31
0
70
35
71
5
3
Standard
53
0
210
0
220
0
230
1
100
AcDbDiametricDimension
15
-40.1
25
0
35
0
40
0
0
DIMENSION
5
CD
100
AcDbEntity
8
dim
6
ByLayer
62
256
370
-1
100
AcDbDimension
2
*D11
10
40.1
20
1.46345292498e-15
30
0
11
52
21
2
31
0
70
35
71
5
3
Standard
53
0
210
0
220
0
230
1
100
AcDbDiametricDimension
15
64
25
0
35
0
40
0
0
DIMENSION
5
CE
100
AcDbEntity
8
dim
6
ByLayer
62
256
370
-1
100
AcDbDimension
2
*D12
10
10
20
1.77328856517e-15
30
0
11
8.125
21
-24.3544785
31
0
70
32
71
5
3
Standard
53
0
210
0
220
0
230
1
100
AcDbAlignedDimension
13
25
23
-48.708957
33
0
14
24.48
24
0
34
0
50
90
100
AcDbRotatedDimension
0
MTEXT
5
CF
100
AcDbEntity
8
dim
6
ByLayer
62
256
370
-1
100
AcDbMText
10
-80
20
90
30
0
40
3
41
51.8333333333
71
1
72
1
1
NW160 пластина\PИз листа 316L нерж 2мм
7
cyrillic_ii
210
0
220
0
230
1
50
0
73
2
44
1
0
ENDSEC
0
SECTION
2
OBJECTS
0
DICTIONARY
5
C
330
0
100
AcDbDictionary
281
1
3
ACAD_GROUP
350
D
0
DICTIONARY
5
D
330
C
100
AcDbDictionary
281
1
0
ENDSEC
0
EOF
